<?xml version="1.0" encoding="iso-8859-1"?>
<!-- Generator: Adobe Illustrator 19.0.0, SVG Export Plug-In . SVG Version: 6.00 Build 0)  -->
<svg version="1.1" id="Layer_1" xmlns="http://www.w3.org/2000/svg" xmlns:xlink="http://www.w3.org/1999/xlink" x="0px" y="0px"
	 viewBox="0 0 512.048 512.048" style="enable-background:new 0 0 512.048 512.048;" xml:space="preserve">
<g>
	<g>
		<path d="M422.384,0H89.664C54.672,0,26.208,29.776,26.208,66.384v240.24c0,36.608,28.464,66.384,63.456,66.384h192.912
			L426.4,512.048l0.608-139.2c32.832-2.48,58.832-31.232,58.832-66.224V66.384C485.84,29.776,457.376,0,422.384,0z M469.84,306.624
			c0,27.776-21.28,50.384-47.456,50.384h-11.312v0.016l-0.512,117.488L289.04,357.024H89.664c-26.176,0-47.456-22.608-47.456-50.384
			V66.384C42.208,38.608,63.488,16,89.664,16h332.72c26.176,0,47.456,22.608,47.456,50.384V306.624z"/>
	</g>
</g>
<g>
</g>
<g>
</g>
<g>
</g>
<g>
</g>
<g>
</g>
<g>
</g>
<g>
</g>
<g>
</g>
<g>
</g>
<g>
</g>
<g>
</g>
<g>
</g>
<g>
</g>
<g>
</g>
<g>
</g>
</svg>
